<svg id="Layer_1" data-name="Layer 1" xmlns="http://www.w3.org/2000/svg" viewBox="0 0 129.18 116.26"><defs><style>.cls-1{fill:#3c59a3;}</style></defs><title>Artboard 19 copy 2</title><path class="cls-1" d="M83.44,83.8A18.15,18.15,0,0,0,78,81.68l-1.22-.34c-2.3-.68-3.78-2-3.95-3.57a3.41,3.41,0,0,1,2-3.26,4,4,0,0,1,1-.37v2.8a1.88,1.88,0,1,0,3.77,0V74.27a11.19,11.19,0,0,1,3,1.24,1.88,1.88,0,0,0,2-3.22,15.08,15.08,0,0,0-5-1.87V69.06a1.88,1.88,0,1,0-3.77,0V70.3a8.13,8.13,0,0,0-2.8.91,7.13,7.13,0,0,0-4,7c.34,3.12,2.82,5.66,6.63,6.78l.13,0v8.87a4.58,4.58,0,0,1-3.26-1.72,1.88,1.88,0,0,0-3.34,1.73c1.15,2.21,3.8,3.45,6.61,3.77v2a1.88,1.88,0,0,0,3.77,0v-2.1a10.33,10.33,0,0,0,1.14-.29,8.15,8.15,0,0,0,5.6-6.55A6.9,6.9,0,0,0,83.44,83.8Zm-.78,6.32a4.36,4.36,0,0,1-3,3.5h0V86.11a7.89,7.89,0,0,1,1.67.81A3.21,3.21,0,0,1,82.65,90.13Z"/><path class="cls-1" d="M77.76,59.85q-1,0-1.88.07V27.36c0-2-1.38-4.74-7.94-6.79a57.75,57.75,0,0,0-16.54-2.15,57.75,57.75,0,0,0-16.54,2.15c-6.56,2.05-7.94,4.83-7.94,6.79v57c0,2,1.38,4.74,7.94,6.79a57.75,57.75,0,0,0,16.54,2.15c1.19,0,2.37,0,3.54-.09A24.49,24.49,0,1,0,77.76,59.85ZM36,24.16a54,54,0,0,1,15.42-2,54,54,0,0,1,15.42,2c4.32,1.35,5.3,2.8,5.3,3.2s-1,1.85-5.3,3.2a54,54,0,0,1-15.42,2,54,54,0,0,1-15.42-2c-4.33-1.35-5.3-2.8-5.3-3.2S31.65,25.51,36,24.16Zm-5.3,8.25a21.35,21.35,0,0,0,4.18,1.74A57.75,57.75,0,0,0,51.39,36.3a57.76,57.76,0,0,0,16.54-2.15,21.35,21.35,0,0,0,4.17-1.74v4.45c0,.4-1,1.85-5.3,3.2a54,54,0,0,1-15.42,2,66.54,66.54,0,0,1-7.88-.45,1.88,1.88,0,0,0-.45,3.74,70.3,70.3,0,0,0,8.33.48,57.75,57.75,0,0,0,16.54-2.15,21.36,21.36,0,0,0,4.17-1.74V55.85c0,.4-1,1.85-5.3,3.2a54,54,0,0,1-15.42,2A54,54,0,0,1,36,59c-4.33-1.35-5.3-2.8-5.3-3.2V51.4a21.36,21.36,0,0,0,4.18,1.74A57.75,57.75,0,0,0,51.39,55.3a67.39,67.39,0,0,0,10.55-.79,1.88,1.88,0,1,0-.59-3.72,64.56,64.56,0,0,1-10,.74,54,54,0,0,1-15.42-2c-4.33-1.35-5.3-2.8-5.3-3.2V32.41ZM51.39,89.52a54,54,0,0,1-15.42-2c-4.33-1.35-5.3-2.8-5.3-3.2V79.89a21.36,21.36,0,0,0,4.18,1.74,57.75,57.75,0,0,0,16.54,2.15l1.89,0c0,.19,0,.38,0,.57s0,.43,0,.64,0,.13,0,.2,0,.29,0,.44,0,.16,0,.24,0,.26,0,.39,0,.18,0,.27,0,.24,0,.37l0,.29,0,.34,0,.31,0,.31.06.34,0,.27.07.37,0,.23,0,.14C53,89.5,52.2,89.52,51.39,89.52Zm4.05-15.25h0l-.19.44-.05.13-.09.21A24.27,24.27,0,0,0,53.66,80c-.75,0-1.51,0-2.27,0A54,54,0,0,1,36,78c-4.33-1.35-5.3-2.8-5.3-3.2V60.89h0a21.36,21.36,0,0,0,4.18,1.74,57.75,57.75,0,0,0,16.54,2.15,63.19,63.19,0,0,0,13.66-1.39,24.58,24.58,0,0,0-5.92,5q-.74.87-1.39,1.79c-2,.19-4.19.29-6.35.29a66.54,66.54,0,0,1-7.88-.45,1.88,1.88,0,0,0-.45,3.74,70.3,70.3,0,0,0,8.33.48c1.38,0,2.75,0,4.09-.12Zm22.32,30.79A20.76,20.76,0,0,1,58,90.5l-.09-.31-.15-.52-.09-.35L57.58,89q-.07-.3-.13-.6l0-.24q0-.26-.09-.52l0-.16c0-.22-.06-.44-.09-.67l0-.19c0-.22,0-.43-.06-.65v-.06c0-.23,0-.47,0-.71,0-.06,0-.12,0-.18,0-.24,0-.48,0-.72s0-.57,0-.86v-.14c0-.26,0-.51.05-.77l0-.24q0-.34.08-.67l.05-.36.05-.33c0-.27.09-.53.15-.8h0A20.79,20.79,0,0,1,72,64.42l.09,0,.51-.14.59-.14.23,0,.79-.15a20.72,20.72,0,1,1,3.51,41.14Z"/><path class="cls-1" d="M36.38,44.09l.89.22a1.88,1.88,0,0,0,.87-3.67l-.81-.2a1.88,1.88,0,0,0-1,3.64Z"/><path class="cls-1" d="M67,53.35a1.89,1.89,0,0,0,.54-.08l1.11-.35a1.88,1.88,0,0,0-1.21-3.57l-1,.31A1.88,1.88,0,0,0,67,53.35Z"/><path class="cls-1" d="M38.15,69.13l-.81-.2a1.88,1.88,0,1,0-1,3.64l.89.22a1.88,1.88,0,0,0,.87-3.67Z"/><rect class="cls-1" x="0.98" y="33.84" width="28.41" height="8.12" rx="4.06" ry="4.06"/><rect class="cls-1" x="-2.35" y="26.31" width="28.41" height="8.12" rx="4.06" ry="4.06" transform="matrix(0.68, -0.74, 0.74, 0.68, -18.53, 18.56)"/><rect class="cls-1" x="-1.71" y="40.76" width="28.41" height="8.12" rx="4.06" ry="4.06" transform="translate(33.62 3.36) rotate(42.57)"/><rect class="cls-1" x="99.8" y="80.27" width="28.41" height="8.12" rx="4.06" ry="4.06" transform="translate(228.01 168.66) rotate(-180)"/><rect class="cls-1" x="103.12" y="87.8" width="28.41" height="8.12" rx="4.06" ry="4.06" transform="translate(264.35 67.58) rotate(132.57)"/><rect class="cls-1" x="102.48" y="73.34" width="28.41" height="8.12" rx="4.06" ry="4.06" transform="translate(150.26 213.34) rotate(-137.43)"/></svg>