<svg id="Layer_1" data-name="Layer 1" xmlns="http://www.w3.org/2000/svg" viewBox="0 0 129.18 116.26"><defs><style>.cls-1{fill:#3c59a3;stroke:#3c59a3;stroke-miterlimit:10;stroke-width:1.21px;}</style></defs><title>Artboard 19 copy 3</title><path class="cls-1" d="M91,63.5V19.09H31V97.34H89.68A16.94,16.94,0,0,0,91,63.5ZM33.61,94.73v-73h7.82v73Zm47,0H44v-73H88.38V63.48l-.22,0-.76.09c-.3,0-.6.08-.89.14l-.74.17c-.29.07-.57.14-.85.22l-.72.23-.81.3-.69.3-.77.37-.66.36-.72.44-.62.42-.68.51-.58.47c-.22.19-.42.38-.63.57l-.53.52c-.2.2-.39.42-.58.63s-.32.37-.48.56-.35.46-.52.69-.29.39-.42.6-.31.5-.46.75-.25.41-.36.63-.26.54-.39.81-.2.43-.3.65-.22.58-.32.87-.16.43-.23.65-.17.63-.25,1-.11.42-.16.64-.12.73-.17,1.09c0,.19-.06.37-.08.55a16.25,16.25,0,0,0-.09,1.7c0,.52,0,1,.08,1.54,0,.12,0,.24,0,.35.06.5.13,1,.23,1.47l0,.17c.09.44.21.88.34,1.3l.1.32c.15.46.31.91.5,1.35l.11.24q.25.58.55,1.14l.14.26q.34.62.74,1.21l.18.26c.24.35.49.69.76,1l.14.18c.3.36.62.71,1,1l.24.24c.32.31.65.62,1,.91l.08.07c.37.3.76.59,1.15.86l.28.19Zm9,0A14.35,14.35,0,1,1,104,80.38,14.36,14.36,0,0,1,89.68,94.73Z"/><path class="cls-1" d="M81.86,32.13H50.56V50.39h31.3ZM79.25,47.78H53.17v-13H79.25Z"/><rect class="cls-1" x="57.08" y="37.35" width="18.26" height="2.61"/><rect class="cls-1" x="57.08" y="42.57" width="18.26" height="2.61"/><path class="cls-1" d="M82.27,90.42a.84.84,0,0,1-.59-.24.83.83,0,0,1-.23-.74c1.15-6.15,1.58-6.58,1.77-6.77L94.31,71.57A1.92,1.92,0,0,1,95.69,71h0a1.94,1.94,0,0,1,1.38.57l3.22,3.22a2,2,0,0,1,0,2.75L89.19,88.63c-.19.18-.62.62-6.77,1.77Zm2.19-6.64a39.69,39.69,0,0,0-1.14,4.75,36.82,36.82,0,0,0,4.79-1.16l11-11a.28.28,0,0,0,0-.4l-3.22-3.21a.28.28,0,0,0-.2-.08h0a.27.27,0,0,0-.2.08Z"/><path class="cls-1" d="M88.6,88.88a.84.84,0,0,1-.59-.24l-4.79-4.79a.83.83,0,0,1,1.18-1.18l4.79,4.79a.83.83,0,0,1-.59,1.42Z"/></svg>