<svg id="Layer_1" data-name="Layer 1" xmlns="http://www.w3.org/2000/svg" viewBox="0 0 129.18 116.26"><defs><style>.cls-1{fill:#3c59a3;}</style></defs><title>Artboard 19 copy</title><path class="cls-1" d="M112.6,81.13a.5.5,0,0,0,0-.16.53.53,0,0,0,0-.16c0-.05,0-.11,0-.15a297453.57,297453.57,0,0,1-.15-.29.33.33,0,0,0-.09-.13s-.05-.09-.09-.13A.79.79,0,0,0,112,80l-.11-.11a1,1,0,0,0-.15-.09.79.79,0,0,0-.13-.07L91.55,69.8a.55.55,0,0,0-.18-.07c-.35-.13-8.64-3-15.43,0L61,75.17l-.13.05a5,5,0,0,0,1.82,9.54h0c.15,0,.8,0,7.62-.47l6.31-.4a1.65,1.65,0,0,0,0-3.3l-6.47.4-7.37.47a1.7,1.7,0,0,1-.58-3.21l15-5.42.13-.05c5.25-2.39,12.11-.24,12.93,0l9,4.41L94.21,88.83a10,10,0,0,0-8.12-1.08l-20.1,6A9.46,9.46,0,0,1,58.76,93L27.29,76a1.46,1.46,0,0,1-.67-1.91,1.39,1.39,0,0,1,1.73-.89L52.8,81.33a1.66,1.66,0,0,0,1.06-3.14L29.35,70a.16.16,0,0,0-.09,0,4.82,4.82,0,0,0-3.54,8.9L57.21,96A12.73,12.73,0,0,0,67,97l20.1-6a6.6,6.6,0,0,1,5.45.75l10.25,6.46.15.07,0,0h0s0,0,.07,0l.13.05.07,0,.13,0a.11.11,0,0,1,.07,0l.2,0h0a.89.89,0,0,0,.22,0,.11.11,0,0,0,.07,0,.43.43,0,0,0,.15,0l.07,0,.13-.05.07,0,.13-.07.07,0,.11-.07.07-.05.09-.09.07-.07a.38.38,0,0,0,.07-.11l.05-.07a0,0,0,0,1,0,0,.06.06,0,0,1,0,0,1.08,1.08,0,0,0,.07-.15l7.29-15.54.05-.15a1.26,1.26,0,0,1,.05-.15.5.5,0,0,0,0-.16c0-.05,0-.11,0-.16A.51.51,0,0,0,112.6,81.13Zm-3.83.84-5.82,12.38-5.89-3.72,5.05-11.93Z"/><path class="cls-1" d="M53.56,68.84A26.65,26.65,0,1,0,26.9,42.19,26.68,26.68,0,0,0,53.56,68.84Zm0-50A23.34,23.34,0,1,1,30.22,42.19,23.36,23.36,0,0,1,53.56,18.85Z"/><path class="cls-1" d="M59.74,42.42a18.15,18.15,0,0,0-5.4-2.13L53.11,40c-2.3-.68-3.78-2-3.95-3.57a3.41,3.41,0,0,1,2-3.26,4,4,0,0,1,1-.37v2.8a1.88,1.88,0,0,0,3.77,0V32.89a11.19,11.19,0,0,1,3,1.24,1.88,1.88,0,0,0,2-3.22A15.08,15.08,0,0,0,56,29V27.68a1.88,1.88,0,0,0-3.77,0v1.24a8.13,8.13,0,0,0-2.8.91,7.13,7.13,0,0,0-4,7c.34,3.12,2.82,5.66,6.63,6.78l.13,0v8.87a4.58,4.58,0,0,1-3.26-1.72,1.88,1.88,0,0,0-3.34,1.73c1.15,2.21,3.8,3.45,6.61,3.77v2a1.88,1.88,0,1,0,3.77,0v-2.1a10.33,10.33,0,0,0,1.14-.29,8.15,8.15,0,0,0,5.6-6.55A6.9,6.9,0,0,0,59.74,42.42ZM59,48.75a4.36,4.36,0,0,1-3,3.5h0V44.73a7.89,7.89,0,0,1,1.67.81A3.21,3.21,0,0,1,59,48.75Z"/></svg>