<svg id="Layer_1" data-name="Layer 1" xmlns="http://www.w3.org/2000/svg" viewBox="0 0 129.18 116.26"><defs><style>.cls-1{fill:#3c59a3;}.cls-2{fill:#3d59a3;}</style></defs><title>Artboard 19</title><path class="cls-1" d="M65.22,116.09A58.2,58.2,0,0,1,7.08,58a2.15,2.15,0,1,1,4.31,0,53.83,53.83,0,0,0,107,8.28,2.15,2.15,0,0,1,4.26.66,58.51,58.51,0,0,1-57.45,49.19"/><path class="cls-1" d="M15.7,66.57a2.15,2.15,0,0,1-1.52-.63L9.24,61,4.3,65.94a2.15,2.15,0,0,1-3-3l6.46-6.46a2.15,2.15,0,0,1,3,0l6.46,6.46a2.15,2.15,0,0,1-1.52,3.68"/><path class="cls-1" d="M121.19,60.11A2.15,2.15,0,0,1,119,58,53.83,53.83,0,0,0,12,49.68,2.15,2.15,0,0,1,7.77,49,58.14,58.14,0,0,1,123.35,58a2.15,2.15,0,0,1-2.15,2.15"/><path class="cls-1" d="M121.19,60.11a2.15,2.15,0,0,1-1.52-.63L113.21,53a2.15,2.15,0,0,1,3-3l4.94,4.94L126.13,50a2.15,2.15,0,0,1,3,3l-6.46,6.46a2.15,2.15,0,0,1-1.52.63"/><path class="cls-2" d="M51.63,62.59a1.4,1.4,0,0,0,1.28,1.5h3.26a13.54,13.54,0,0,1-1.29-3h-2A1.4,1.4,0,0,0,51.63,62.59Z"/><path class="cls-2" d="M45.24,57.09h9.31c.07-1,.21-2,.4-2H45.24c-.77,0-1.28.23-1.28,1S44.48,57.09,45.24,57.09Z"/><path class="cls-2" d="M45.24,64.09H47.8a1.52,1.52,0,0,0,0-3H45.24a1.52,1.52,0,0,0,0,3Z"/><path class="cls-2" d="M45.24,51.09H57.09a28.5,28.5,0,0,1,3.82-3H45.24a1.52,1.52,0,0,0,0,3Z"/><path class="cls-2" d="M86.44,56.09c0-.77-.51-1-1.28-1H77.45c.19,0,.33,1,.4,2h7.32C85.93,57.09,86.44,56.86,86.44,56.09Z"/><path class="cls-2" d="M55.46,68.09H45.24c-.77,0-1.28.23-1.28,1s.51,1,1.28,1H55.46c.77,0,1.28-.23,1.28-1S56.23,68.09,55.46,68.09Z"/><path class="cls-2" d="M38.85,34.09a1.3,1.3,0,0,0-1.28,1.39,3.67,3.67,0,0,1-3.66,3.89c-.77,0-1.11.57-1.11,1.34V76.48c0,.77.34,1.28,1.11,1.28a3.79,3.79,0,0,1,3.75,3.95,1.24,1.24,0,0,0,1.19,1.39h52.7a1.33,1.33,0,0,0,1.32-1.39,4.13,4.13,0,0,1,4.23-3.86c.77,0,1.71-.6,1.71-1.37V40.71c0-.77-.94-1.32-1.71-1.32A4,4,0,0,1,93,35.49a1.45,1.45,0,0,0-1.46-1.39H38.85Zm57,7.77V75.33a6.57,6.57,0,0,0-5.4,5.76H40c-.51-3-2.2-5.25-4.2-5.76V41.86c2-.51,3.69-2.77,4.2-4.77H90.4A6.74,6.74,0,0,0,95.81,41.86Z"/><path class="cls-2" d="M66.2,69.45a11.9,11.9,0,0,1-5.82-1.51A1,1,0,0,0,59.29,69c0,.77.51,1.08,1.28,1.08H66.1a1.21,1.21,0,0,0,1.19-.61C66.93,69.52,66.57,69.45,66.2,69.45Z"/><path class="cls-2" d="M58,42.09a1.52,1.52,0,0,0,0,3H74.63a1.52,1.52,0,0,0,0-3H58Z"/><path class="cls-2" d="M101.77,29.09H28.64c-.77,0-.83.63-.83,1.4V86.7c0,.77.06,1.39.83,1.39h73.14c.77,0,2-.63,2-1.39V30.49C103.81,29.73,102.54,29.09,101.77,29.09Zm-1,57h-70v-54h70Z"/><path class="cls-2" d="M75.31,51.09h9.86a1.52,1.52,0,0,0,0-3H71.49A28.48,28.48,0,0,1,75.31,51.09Z"/><path class="cls-2" d="M77.53,61.09a13.55,13.55,0,0,1-1.29,3h9.49a1.52,1.52,0,0,0,0-3Z"/><path class="cls-2" d="M85.17,68.09H72c-.66,0-1.36.6-2.1.84,0,0,0,.09,0,.12,0,.77.51,1,1.28,1h14c.77,0,1.28-.23,1.28-1S85.93,68.09,85.17,68.09Z"/><path class="cls-1" d="M69.57,57.46a10.87,10.87,0,0,0-3.24-1.27L65.6,56c-1.38-.41-2.26-1.2-2.36-2.14a2,2,0,0,1,1.22-1.95,2.4,2.4,0,0,1,.59-.22v1.68a1.13,1.13,0,1,0,2.26,0V51.75a6.7,6.7,0,0,1,1.82.74,1.13,1.13,0,0,0,1.17-1.93,9,9,0,0,0-3-1.12v-.81a1.13,1.13,0,1,0-2.26,0v.74a4.87,4.87,0,0,0-1.68.54A4.27,4.27,0,0,0,61,54.08c.2,1.87,1.69,3.39,4,4.06l.08,0v5.31a2.74,2.74,0,0,1-2-1,1.13,1.13,0,0,0-2,1,5,5,0,0,0,4,2.26v1.18a1.13,1.13,0,0,0,2.26,0V65.66a6.18,6.18,0,0,0,.68-.17,4.88,4.88,0,0,0,3.35-3.92A4.13,4.13,0,0,0,69.57,57.46Zm-.47,3.79a2.61,2.61,0,0,1-1.8,2.1h0v-4.5a4.73,4.73,0,0,1,1,.49A1.92,1.92,0,0,1,69.1,61.24Z"/></svg>