<?xml version="1.0" encoding="utf-8"?>
<!-- Generator: Adobe Illustrator 19.0.0, SVG Export Plug-In . SVG Version: 6.00 Build 0)  -->
<svg version="1.1" id="Layer_1" xmlns="http://www.w3.org/2000/svg" xmlns:xlink="http://www.w3.org/1999/xlink" x="0px" y="0px"
	 viewBox="0 0 1095 260" style="enable-background:new 0 0 1095 260;" xml:space="preserve">
<style type="text/css">
	.st0{fill:#3E5AA3;}
	.st1{fill:#FFFFFF;}
	.st2{fill:#B4DFE7;}
</style>
<rect class="st0" width="1095" height="260"/>
<g>
	<path class="st1" d="M314.6,84.2h38.4c5.6,0,10.7,0.8,15.1,2.4c4.4,1.6,8.2,3.8,11.3,6.7c3.1,2.9,5.5,6.3,7.1,10.3
		c1.7,4,2.5,8.4,2.5,13.2v0.3c0,5.5-1,10.3-3,14.4c-2,4.1-4.7,7.6-8.1,10.3c-3.4,2.8-7.5,4.9-12.1,6.2c-4.6,1.4-9.6,2.1-14.8,2.1
		h-15.7v28.2h-20.7V84.2z M351.7,131.6c5.2,0,9.2-1.4,12.1-4.1c2.9-2.7,4.3-6.1,4.3-10.1v-0.3c0-4.7-1.5-8.2-4.5-10.6
		c-3-2.4-7.1-3.6-12.3-3.6h-16v28.8H351.7z"/>
	<path class="st1" d="M404.4,84.2h70.8v18.4h-50.4v19.1h44.3v18.4h-44.3v19.7h51.1v18.4h-71.5V84.2z"/>
	<path class="st1" d="M538.5,179.8c-6.9,0-13.3-1.3-19.2-3.8c-5.9-2.5-11-5.9-15.3-10.3c-4.3-4.3-7.7-9.5-10.1-15.4
		c-2.4-5.9-3.6-12.2-3.6-18.9v-0.3c0-6.7,1.2-13,3.6-18.9c2.4-5.9,5.8-11,10.1-15.4c4.3-4.4,9.4-7.9,15.4-10.5
		c6-2.6,12.6-3.8,19.9-3.8c4.4,0,8.4,0.4,12,1.1c3.6,0.7,6.9,1.7,9.9,3c3,1.3,5.7,2.8,8.2,4.6c2.5,1.8,4.8,3.8,7,5.9l-13.2,15.2
		c-3.7-3.3-7.4-5.9-11.2-7.8c-3.8-1.9-8.1-2.8-12.8-2.8c-3.9,0-7.6,0.8-10.9,2.3c-3.4,1.5-6.2,3.6-8.7,6.3c-2.4,2.7-4.3,5.8-5.6,9.3
		c-1.3,3.5-2,7.3-2,11.4v0.3c0,4,0.7,7.8,2,11.4c1.3,3.6,3.2,6.7,5.6,9.4c2.4,2.7,5.2,4.8,8.6,6.4c3.4,1.6,7.1,2.4,11.1,2.4
		c5.4,0,9.9-1,13.6-3c3.7-2,7.4-4.7,11.1-8.1L577,163c-2.4,2.6-4.9,4.9-7.5,7c-2.6,2.1-5.4,3.8-8.5,5.3c-3.1,1.5-6.5,2.6-10.1,3.4
		C547.2,179.5,543,179.8,538.5,179.8z"/>
	<path class="st1" d="M639.2,179.8c-7.3,0-13.9-1.3-20-3.8c-6.1-2.6-11.4-6-15.8-10.3c-4.4-4.3-7.9-9.4-10.3-15.3
		c-2.5-5.9-3.7-12.2-3.7-18.9v-0.3c0-6.7,1.3-13,3.8-18.9c2.5-5.9,6-11,10.4-15.4c4.4-4.4,9.7-7.9,15.9-10.5
		c6.1-2.6,12.8-3.8,20.1-3.8c7.3,0,13.9,1.3,20,3.8c6.1,2.6,11.4,6,15.8,10.3c4.4,4.3,7.9,9.5,10.3,15.3c2.5,5.9,3.7,12.2,3.7,18.9
		v0.3c0,6.7-1.3,13-3.8,18.9c-2.5,5.9-6,11-10.4,15.4c-4.4,4.4-9.7,7.9-15.9,10.5C653.2,178.6,646.5,179.8,639.2,179.8z
		 M639.5,160.8c4.1,0,7.9-0.8,11.4-2.3c3.5-1.5,6.5-3.6,8.9-6.3c2.5-2.7,4.4-5.8,5.8-9.3c1.4-3.5,2.1-7.3,2.1-11.4v-0.3
		c0-4-0.7-7.8-2.1-11.4c-1.4-3.6-3.4-6.7-5.9-9.4c-2.6-2.7-5.6-4.8-9.1-6.4c-3.5-1.6-7.3-2.4-11.4-2.4c-4.2,0-8,0.8-11.5,2.3
		c-3.4,1.5-6.4,3.6-8.9,6.3c-2.5,2.7-4.4,5.8-5.8,9.3c-1.4,3.5-2.1,7.3-2.1,11.4v0.3c0,4,0.7,7.8,2.1,11.4c1.4,3.6,3.4,6.7,5.9,9.4
		c2.6,2.7,5.6,4.8,9,6.4C631.5,160,635.3,160.8,639.5,160.8z"/>
	<path class="st1" d="M753.4,179.8c-7.3,0-13.9-1.3-20-3.8c-6.1-2.6-11.4-6-15.8-10.3c-4.4-4.3-7.9-9.4-10.3-15.3
		c-2.5-5.9-3.7-12.2-3.7-18.9v-0.3c0-6.7,1.3-13,3.8-18.9c2.5-5.9,6-11,10.4-15.4c4.4-4.4,9.7-7.9,15.9-10.5
		c6.1-2.6,12.8-3.8,20.1-3.8c7.3,0,13.9,1.3,20,3.8c6.1,2.6,11.4,6,15.8,10.3c4.4,4.3,7.9,9.5,10.3,15.3c2.5,5.9,3.7,12.2,3.7,18.9
		v0.3c0,6.7-1.3,13-3.8,18.9c-2.5,5.9-6,11-10.4,15.4c-4.4,4.4-9.7,7.9-15.9,10.5C767.4,178.6,760.7,179.8,753.4,179.8z
		 M753.7,160.8c4.1,0,7.9-0.8,11.4-2.3c3.5-1.5,6.5-3.6,8.9-6.3c2.5-2.7,4.4-5.8,5.8-9.3c1.4-3.5,2.1-7.3,2.1-11.4v-0.3
		c0-4-0.7-7.8-2.1-11.4c-1.4-3.6-3.4-6.7-5.9-9.4c-2.6-2.7-5.6-4.8-9.1-6.4c-3.5-1.6-7.3-2.4-11.4-2.4c-4.2,0-8,0.8-11.5,2.3
		c-3.4,1.5-6.4,3.6-8.9,6.3c-2.5,2.7-4.4,5.8-5.8,9.3c-1.4,3.5-2.1,7.3-2.1,11.4v0.3c0,4,0.7,7.8,2.1,11.4c1.4,3.6,3.4,6.7,5.9,9.4
		c2.6,2.7,5.6,4.8,9,6.4C745.7,160,749.5,160.8,753.7,160.8z"/>
	<path class="st1" d="M822,84.2H841l44.1,57.9V84.2h20.4v94h-17.6l-45.5-59.8v59.8H822V84.2z"/>
	<path class="st1" d="M929,84.2h20.7v94H929V84.2z"/>
	<path class="st1" d="M1005.5,83.5h19.1l40.3,94.7h-21.6l-8.6-21.1h-39.8l-8.6,21.1h-21.1L1005.5,83.5z M1027.2,138.9l-12.5-30.5
		l-12.5,30.5H1027.2z"/>
</g>
<path class="st1" d="M207.9,221.6h-31.4c-4.3,0-7.7-3.5-7.7-7.7v0c0-4.2,3.6-7.7,7.8-7.7H208c4.3,0,7.7,3.5,7.7,7.7v0
	C215.7,218.1,212.1,221.6,207.9,221.6z"/>
<path class="st1" d="M226.6,193.1h-49.5c-4.3,0-7.7-3.5-7.7-7.7v0c0-4.2,3.6-7.7,7.8-7.7h49.5c4.3,0,7.7,3.5,7.7,7.7v0
	C234.3,189.7,230.8,193.1,226.6,193.1z"/>
<path class="st2" d="M159.1,193.1h-38.2c-4.3,0-7.7-3.5-7.7-7.7l0,0c0-4.2,3.6-7.7,7.8-7.7h38.2c4.3,0,7.7,3.5,7.7,7.7v0
	C166.9,189.7,163.4,193.1,159.1,193.1z"/>
<path class="st2" d="M158.8,221.6h-38.2c-4.3,0-7.7-3.5-7.7-7.7v0c0-4.2,3.6-7.7,7.8-7.7H159c4.3,0,7.7,3.5,7.7,7.7v0
	C166.6,218.1,163.1,221.6,158.8,221.6z"/>
<path class="st2" d="M242.3,164.6H120.8c-4.3,0-7.7-3.5-7.7-7.7v0c0-4.2,3.6-7.7,7.8-7.7h121.5c4.3,0,7.7,3.5,7.7,7.7v0
	C250.1,161.2,246.6,164.6,242.3,164.6z"/>
<path class="st1" d="M101.8,164.6H65.5c-4.3,0-7.7-3.5-7.7-7.7v0c0-4.2,3.6-7.7,7.8-7.7H102c4.3,0,7.7,3.5,7.7,7.7v0
	C109.6,161.2,106.1,164.6,101.8,164.6z"/>
<path class="st2" d="M263.9,136.2H121.4c-4.3,0-7.7-3.5-7.7-7.7v0c0-4.2,3.6-7.7,7.8-7.7h142.5c4.3,0,7.7,3.5,7.7,7.7v0
	C271.7,132.7,268.2,136.2,263.9,136.2z"/>
<path class="st1" d="M102.2,136.2H47.3c-4.3,0-7.7-3.5-7.7-7.7v0c0-4.2,3.6-7.7,7.8-7.7h54.9c4.3,0,7.7,3.5,7.7,7.7v0
	C110,132.7,106.5,136.2,102.2,136.2z"/>
<path class="st2" d="M245.8,107.7H121.7c-4.3,0-7.7-3.5-7.7-7.7v0c0-4.2,3.6-7.7,7.8-7.7h124.1c4.3,0,7.7,3.5,7.7,7.7v0
	C253.5,104.2,250,107.7,245.8,107.7z"/>
<path class="st2" d="M227.6,79.2H122c-4.3,0-7.7-3.5-7.7-7.7v0c0-4.2,3.6-7.7,7.8-7.7h105.6c4.3,0,7.7,3.5,7.7,7.7v0
	C235.4,75.7,231.8,79.2,227.6,79.2z"/>
<path class="st1" d="M209.4,50.7H103.3c-4.3,0-7.7-3.5-7.7-7.7v0c0-4.2,3.6-7.7,7.8-7.7h106.1c4.3,0,7.7,3.5,7.7,7.7v0
	C217.2,47.2,213.7,50.7,209.4,50.7z"/>
<path class="st1" d="M102.7,79.2H84.7c-4.3,0-7.7-3.5-7.7-7.7v0c0-4.2,3.6-7.7,7.8-7.7h18.1c4.3,0,7.7,3.5,7.7,7.7l0,0
	C110.5,75.7,107,79.2,102.7,79.2z"/>
<path class="st1" d="M102.4,107.7H66c-4.3,0-7.7-3.5-7.7-7.7v0c0-4.2,3.6-7.7,7.8-7.7h36.4c4.3,0,7.7,3.5,7.7,7.7v0
	C110.1,104.2,106.6,107.7,102.4,107.7z"/>
<path class="st1" d="M101.1,193.1H83.6c-4.3,0-7.7-3.5-7.7-7.7l0,0c0-4.2,3.6-7.7,7.8-7.7h17.5c4.3,0,7.7,3.5,7.7,7.7v0
	C108.9,189.7,105.4,193.1,101.1,193.1z"/>
<path class="st1" d="M100.9,221.3h-7.7c-4.3,0-7.7-3.5-7.7-7.7v0c0-4.2,3.6-7.7,7.8-7.7h7.7c4.3,0,7.7,3.5,7.7,7.7v0
	C108.6,217.8,105.1,221.3,100.9,221.3z"/>
</svg>
